<svg width="686" height="580" viewBox="0 0 686 580" fill="none" xmlns="http://www.w3.org/2000/svg">
<rect x="283" y="524" width="119" height="10" transform="rotate(-90 283 524)" fill="#DAE5F1"/>
<rect x="128" y="237" width="26" height="10" transform="rotate(-90 128 237)" fill="#DAE5F1"/>
<rect x="265" y="222" width="101" height="10" transform="rotate(-90 265 222)" fill="#DAE5F1"/>
<rect x="385" y="171" width="22" height="10" transform="rotate(-90 385 171)" fill="#DAE5F1"/>
<rect x="359" y="138" width="36" height="10" transform="rotate(-90 359 138)" fill="#DAE5F1"/>
<rect x="293" y="104" width="36" height="10" transform="rotate(-90 293 104)" fill="#DAE5F1"/>
<rect x="100" y="207" width="36" height="10" transform="rotate(-90 100 207)" fill="#DAE5F1"/>
<rect x="178" y="397" width="38" height="10" fill="#DAE5F1"/>
<rect x="536" y="367" width="39" height="10" fill="#DAE5F1"/>
<rect x="516" y="281" width="25" height="10" fill="#DAE5F1"/>
<rect x="604" y="342" width="6" height="10" transform="rotate(90 604 342)" fill="#DAE5F1"/>
<rect x="98" y="300" width="57" height="10" fill="#DAE5F1"/>
<rect x="213" y="241" width="33" height="10" fill="#DAE5F1"/>
<rect x="283" y="191" width="82" height="10" fill="#DAE5F1"/>
<rect x="157" y="181" width="30" height="10" fill="#DAE5F1"/>
<rect x="369" y="392" width="92" height="10" transform="rotate(-90 369 392)" fill="#DAE5F1"/>
<rect x="477" y="263" width="38" height="10" transform="rotate(-90 477 263)" fill="#DAE5F1"/>
<rect x="546" y="140" width="21" height="10" transform="rotate(-90 546 140)" fill="#DAE5F1"/>
<rect x="389" y="493" width="45" height="10" transform="rotate(-90 389 493)" fill="#DAE5F1"/>
<rect x="264" y="395" width="58" height="10" transform="rotate(-90 264 395)" fill="#DAE5F1"/>
<circle cx="288" cy="462" r="14" fill="#DAE5F1"/>
<circle cx="394" cy="435" r="14" fill="#DAE5F1"/>
<circle cx="154" cy="364" r="14" fill="#DAE5F1"/>
<circle cx="85" cy="305" r="14" fill="#DAE5F1"/>
<circle cx="211" cy="148" r="14" fill="#DAE5F1"/>
<circle cx="374" cy="287" r="14" fill="#DAE5F1"/>
<circle cx="554" cy="286" r="14" fill="#DAE5F1"/>
<circle cx="482" cy="212" r="14" fill="#DAE5F1"/>
<circle cx="444" cy="283" r="14" fill="#DAE5F1"/>
<circle cx="374" cy="355" r="14" fill="#DAE5F1"/>
<circle cx="241" cy="322" r="14" fill="#DAE5F1"/>
<circle cx="270" cy="196" r="14" fill="#DAE5F1"/>
<circle cx="133" cy="222" r="14" fill="#DAE5F1"/>
<circle cx="364" cy="89" r="14" fill="#DAE5F1"/>
<circle cx="298" cy="55" r="14" fill="#DAE5F1"/>
<circle cx="105" cy="158" r="14" fill="#DAE5F1"/>
<circle cx="390" cy="136" r="14" fill="#DAE5F1"/>
<circle cx="551" cy="106" r="14" fill="#DAE5F1"/>
<path d="M323 563C300.909 563 283 545.091 283 523L293 523C293 539.569 306.431 553 323 553L323 563Z" fill="#DAE5F1"/>
<path d="M275 467C252.909 467 235 449.091 235 427L245 427C245 443.569 258.431 457 275 457L275 467Z" fill="#DAE5F1"/>
<path d="M379 392C379 414.091 361.091 432 339 432L339 422C355.569 422 369 408.569 369 392L379 392Z" fill="#DAE5F1"/>
<path d="M369 366C369 343.909 386.909 326 409 326L409 336C392.431 336 379 349.431 379 366L369 366Z" fill="#DAE5F1"/>
<path d="M449 296C449 318.091 431.091 336 409 336L409 326C425.569 326 439 312.569 439 296L449 296Z" fill="#DAE5F1"/>
<path d="M556 139C556 161.091 538.091 179 516 179L516 169C532.569 169 546 155.569 546 139L556 139Z" fill="#DAE5F1"/>
<path d="M215 397C231.569 397 245 410.431 245 427H235C235 415.954 226.046 407 215 407V397Z" fill="#DAE5F1"/>
<path d="M179 407C162.431 407 149 393.569 149 377L159 377C159 388.046 167.954 397 179 397L179 407Z" fill="#DAE5F1"/>
<path d="M506 397C506 380.431 519.431 367 536 367L536 377C524.954 377 516 385.954 516 397L506 397Z" fill="#DAE5F1"/>
<path d="M604 347C604 363.569 590.569 377 574 377L574 367C585.046 367 594 358.046 594 347L604 347Z" fill="#DAE5F1"/>
<path d="M128 211C128 194.431 141.431 181 158 181L158 191C146.954 191 138 199.954 138 211L128 211Z" fill="#DAE5F1"/>
<path d="M158 267C141.431 267 128 253.569 128 237L138 237C138 248.046 146.954 257 158 257L158 267Z" fill="#DAE5F1"/>
<path d="M186 191C202.569 191 216 177.569 216 161L206 161C206 172.046 197.046 181 186 181L186 191Z" fill="#DAE5F1"/>
<path d="M245 251C261.569 251 275 237.569 275 221L265 221C265 232.046 256.046 241 245 241L245 251Z" fill="#DAE5F1"/>
<path d="M339 168C355.569 168 369 154.569 369 138L359 138C359 149.046 350.046 158 339 158L339 168Z" fill="#DAE5F1"/>
<path d="M365 201C381.569 201 395 187.569 395 171L385 171C385 182.046 376.046 191 365 191L365 201Z" fill="#DAE5F1"/>
<path d="M369 522C385.569 522 399 508.569 399 492L389 492C389 503.046 380.046 512 369 512L369 522Z" fill="#DAE5F1"/>
<path d="M254 317C265.046 317 274 325.954 274 337H264C264 331.477 259.523 327 254 327V317Z" fill="#DAE5F1"/>
<path d="M497 283C485.954 283 477 274.046 477 263L487 263C487 268.523 491.477 273 497 273L497 283Z" fill="#DAE5F1"/>
<path d="M313 124C301.954 124 293 115.046 293 104L303 104C303 109.523 307.477 114 313 114L313 124Z" fill="#DAE5F1"/>
<path d="M120 227C108.954 227 100 218.046 100 207L110 207C110 212.523 114.477 217 120 217L120 227Z" fill="#DAE5F1"/>
<rect width="34" height="10" transform="matrix(1 -8.74228e-08 -8.74228e-08 -1 339 318)" fill="#3D75B7"/>
<rect width="20" height="10" transform="matrix(4.37114e-08 -1 -1 -4.37114e-08 402 289)" fill="#3D75B7"/>
<rect width="19" height="10" transform="matrix(4.37114e-08 -1 -1 -4.37114e-08 165 257)" fill="#3D75B7"/>
<path d="M372 318C388.569 318 402 304.569 402 288L392 288C392 299.046 383.046 308 372 308L372 318Z" fill="#3D75B7"/>
<path d="M291 395C313.091 395 331 412.909 331 435H321C321 418.431 307.569 405 291 405V395Z" fill="#3D75B7"/>
<path d="M361 395C338.909 395 321 412.909 321 435H331C331 418.431 344.431 405 361 405V395Z" fill="#3D75B7"/>
<path d="M243 405C220.909 405 203 387.091 203 365L213 365C213 381.569 226.431 395 243 395L243 405Z" fill="#3D75B7"/>
<path d="M195 357C172.909 357 155 339.091 155 317L165 317C165 333.569 178.431 347 195 347L195 357Z" fill="#3D75B7"/>
<path d="M359 507C359 484.909 376.909 467 399 467L399 477C382.431 477 369 490.431 369 507L359 507Z" fill="#3D75B7"/>
<path d="M329 563C351.091 563 369 545.091 369 523L359 523C359 539.569 345.569 553 329 553L329 563Z" fill="#3D75B7"/>
<path d="M358 124C380.091 124 398 106.091 398 84L388 84C388 100.569 374.569 114 358 114L358 124Z" fill="#3D75B7"/>
<path d="M273 128C273 150.091 290.909 168 313 168L313 158C296.431 158 283 144.569 283 128L273 128Z" fill="#3D75B7"/>
<path d="M516 405C538.091 405 556 387.091 556 365L546 365C546 381.569 532.569 395 516 395L516 405Z" fill="#3D75B7"/>
<path d="M546 365C546 342.909 563.909 325 586 325L586 335C569.431 335 556 348.431 556 365L546 365Z" fill="#3D75B7"/>
<rect x="201" y="561" width="250" height="10" rx="5" fill="#3D75B7"/>
<path d="M331 58L331 561C331 563.761 328.761 566 326 566C323.239 566 321 563.761 321 561L321 58L331 58Z" fill="#3D75B7"/>
<rect x="213" y="215" width="140" height="9.99999" transform="rotate(90 213 215)" fill="#3D75B7"/>
<rect x="292" y="405" width="49" height="10" transform="rotate(-180 292 405)" fill="#3D75B7"/>
<rect x="313" y="512" width="48" height="10" transform="rotate(-180 313 512)" fill="#3D75B7"/>
<rect x="147" y="275" width="67" height="9.99999" transform="rotate(-180 147 275)" fill="#3D75B7"/>
<rect x="497" y="405" width="136" height="9.99999" transform="rotate(-180 497 405)" fill="#3D75B7"/>
<rect x="490" y="291" width="34" height="10" transform="rotate(-180 490 291)" fill="#3D75B7"/>
<rect x="490" y="179" width="33" height="10" transform="rotate(-180 490 179)" fill="#3D75B7"/>
<rect x="359" y="124" width="20" height="10" transform="rotate(-180 359 124)" fill="#3D75B7"/>
<rect x="419" y="64" width="2" height="10" transform="rotate(-180 419 64)" fill="#3D75B7"/>
<rect x="388" y="85" width="2" height="10" transform="rotate(-90 388 85)" fill="#3D75B7"/>
<rect x="427" y="262" width="20" height="10" transform="rotate(-90 427 262)" fill="#3D75B7"/>
<rect x="498" y="387" width="242" height="10" transform="rotate(-90 498 387)" fill="#3D75B7"/>
<rect x="546" y="365" width="2" height="10" transform="rotate(-90 546 365)" fill="#3D75B7"/>
<rect x="428" y="45" width="13" height="10" transform="rotate(-90 428 45)" fill="#3D75B7"/>
<rect x="594" y="317" width="49" height="10" transform="rotate(-90 594 317)" fill="#3D75B7"/>
<rect x="556" y="231" width="37" height="10" transform="rotate(-90 556 231)" fill="#3D75B7"/>
<rect width="37" height="10" transform="matrix(4.37114e-08 -1 -1 -4.37114e-08 251 178)" fill="#3D75B7"/>
<rect width="101" height="10" transform="matrix(4.37114e-08 -1 -1 -4.37114e-08 283 128)" fill="#3D75B7"/>
<rect x="632" y="231" width="17" height="10" transform="rotate(-90 632 231)" fill="#3D75B7"/>
<rect width="17" height="10" transform="matrix(4.37114e-08 -1 -1 -4.37114e-08 175 178)" fill="#3D75B7"/>
<rect x="612" y="325" width="35" height="10" fill="#3D75B7"/>
<rect x="51" y="246" width="21" height="10" transform="rotate(-90 51 246)" fill="#3D75B7"/>
<rect x="528" y="477" width="130" height="9.99999" transform="rotate(-180 528 477)" fill="#3D75B7"/>
<rect x="446" y="472" width="32" height="10" transform="rotate(-90 446 472)" fill="#3D75B7"/>
<rect x="359" y="524" width="18" height="10" transform="rotate(-90 359 524)" fill="#3D75B7"/>
<rect x="155" y="318" width="35" height="10" transform="rotate(-90 155 318)" fill="#3D75B7"/>
<rect x="283" y="289" width="41" height="10" transform="rotate(-90 283 289)" fill="#3D75B7"/>
<rect x="258" y="264" width="17" height="10" fill="#3D75B7"/>
<circle cx="326" cy="566" r="14" fill="#3D75B7"/>
<circle cx="326" cy="566" r="8" fill="#8FFFFF"/>
<circle cx="451" cy="566" r="14" fill="#3D75B7"/>
<circle cx="451" cy="566" r="8" fill="#8FFFFF"/>
<circle cx="201" cy="566" r="14" fill="#3D75B7"/>
<circle cx="201" cy="566" r="8" fill="#8FFFFF"/>
<circle cx="326" cy="507" r="14" fill="#3D75B7"/>
<circle cx="326" cy="507" r="8" fill="#8FFFFF"/>
<circle cx="451" cy="472" r="14" fill="#3D75B7"/>
<circle cx="451" cy="472" r="8" fill="#8FFFFF"/>
<circle cx="503" cy="400" r="14" fill="#3D75B7"/>
<circle cx="503" cy="400" r="8" fill="#8FFFFF"/>
<circle cx="599" cy="330" r="14" fill="#3D75B7"/>
<circle cx="599" cy="330" r="8" fill="#8FFFFF"/>
<circle cx="599" cy="255" r="14" fill="#3D75B7"/>
<circle cx="599" cy="255" r="8" fill="#8FFFFF"/>
<circle r="14" transform="matrix(-1 0 0 1 208 202)" fill="#3D75B7"/>
<circle r="8" transform="matrix(-1 0 0 1 208 202)" fill="#8FFFFF"/>
<circle cx="503" cy="286" r="14" fill="#3D75B7"/>
<circle cx="503" cy="286" r="8" fill="#8FFFFF"/>
<circle cx="503" cy="174" r="14" fill="#3D75B7"/>
<circle cx="503" cy="174" r="8" fill="#8FFFFF"/>
<circle cx="208" cy="352" r="14" fill="#3D75B7"/>
<circle cx="208" cy="352" r="8" fill="#8FFFFF"/>
<circle cx="160" cy="270" r="14" fill="#3D75B7"/>
<circle cx="160" cy="270" r="8" fill="#8FFFFF"/>
<circle cx="326" cy="427" r="14" fill="#3D75B7"/>
<circle cx="326" cy="427" r="8" fill="#8FFFFF"/>
<circle cx="288" cy="269" r="14" fill="#3D75B7"/>
<circle cx="288" cy="269" r="8" fill="#8FFFFF"/>
<circle cx="326" cy="313" r="14" fill="#3D75B7"/>
<circle cx="326" cy="313" r="8" fill="#8FFFFF"/>
<circle cx="326" cy="224" r="14" fill="#3D75B7"/>
<circle cx="326" cy="224" r="8" fill="#8FFFFF"/>
<circle cx="326" cy="163" r="14" fill="#3D75B7"/>
<circle cx="326" cy="163" r="8" fill="#8FFFFF"/>
<circle cx="326" cy="119" r="14" fill="#3D75B7"/>
<circle cx="326" cy="119" r="8" fill="#8FFFFF"/>
<path d="M557 447C557 463.569 543.569 477 527 477L527 467C538.046 467 547 458.046 547 447L557 447Z" fill="#3D75B7"/>
<path d="M457 291C440.431 291 427 277.569 427 261L437 261C437 272.046 445.954 281 457 281L457 291Z" fill="#3D75B7"/>
<path d="M586 260C569.431 260 556 246.569 556 230L566 230C566 241.046 574.954 250 586 250L586 260Z" fill="#3D75B7"/>
<path d="M221 207C237.569 207 251 193.569 251 177L241 177C241 188.046 232.046 197 221 197L221 207Z" fill="#3D75B7"/>
<path d="M612 260C628.569 260 642 246.569 642 230L632 230C632 241.046 623.046 250 612 250L612 260Z" fill="#3D75B7"/>
<path d="M195 207C178.431 207 165 193.569 165 177L175 177C175 188.046 183.954 197 195 197L195 207Z" fill="#3D75B7"/>
<path d="M647 335C663.569 335 677 321.569 677 305L667 305C667 316.046 658.046 325 647 325L647 335Z" fill="#3D75B7"/>
<path d="M81 275C64.4315 275 51 261.569 51 245L61 245C61 256.046 69.9543 265 81 265L81 275Z" fill="#3D75B7"/>
<path d="M313 318C296.431 318 283 304.569 283 288L293 288C293 299.046 301.954 308 313 308L313 318Z" fill="#3D75B7"/>
<path d="M283 249C283 232.431 296.431 219 313 219L313 229C301.954 229 293 237.954 293 249L283 249Z" fill="#3D75B7"/>
<path d="M388 84C388 67.4315 401.431 54 418 54L418 64C406.954 64 398 72.9543 398 84L388 84Z" fill="#3D75B7"/>
<circle cx="552" cy="434" r="14" fill="#0ACF83"/>
<circle cx="278" cy="14" r="14" fill="#A259FF"/>
<circle cx="252" cy="507" r="14" fill="#A259FF"/>
<circle cx="672" cy="292" r="14" fill="#1ABCFE"/>
<circle cx="561" cy="181" r="14" fill="#A259FF"/>
<circle cx="503" cy="132" r="14" fill="#FF7262"/>
<circle cx="444" cy="174" r="14" fill="#1ABCFE"/>
<circle cx="433" cy="19" r="14" fill="#FF7262"/>
<circle cx="637" cy="201" r="14" fill="#FCCC63"/>
<circle r="14" transform="matrix(-1 0 0 1 170 148)" fill="#FF7262"/>
<circle cx="432" cy="229" r="14" fill="#0ACF83"/>
<circle cx="245" cy="269" r="14" fill="#FCCC63"/>
<circle cx="160" cy="225" r="14" fill="#1ABCFE"/>
<circle cx="326" cy="45" r="14" fill="#0ACF83"/>
<path d="M87.9108 168.852C84.7696 168.01 84.7696 168.01 81 167" stroke="white" stroke-width="2" stroke-linecap="round"/>
<path d="M438 44C438 55.0457 429.046 64 418 64L418 54C423.523 54 428 49.5228 428 44L438 44Z" fill="#3D75B7"/>
<g filter="url(#filter0_d)">
<circle cx="56" cy="173" r="53" fill="#174488"/>
<circle cx="56" cy="173" r="48" stroke="#82B0F5" stroke-width="10"/>
</g>
<path d="M23.238 178.716V167.484L45.81 161.22V167.7L27.45 172.614V173.586L45.81 178.5V184.98L23.238 178.716Z" fill="#1ABCFE"/>
<path d="M61.8105 147.45L67.9665 149.394L51.8205 198.75L45.6105 196.806L61.8105 147.45Z" fill="#0ACF83"/>
<path d="M67.7669 184.98V178.5L86.1269 173.586V172.614L67.7669 167.7V161.22L90.3389 167.484V178.716L67.7669 184.98Z" fill="#FCCC63"/>
<g filter="url(#filter1_d)">
<circle cx="246" cy="89" r="53" fill="#174488"/>
<circle cx="246" cy="89" r="48" stroke="#82B0F5" stroke-width="10"/>
</g>
<g clip-path="url(#clip0)">
<path d="M246.062 57.3375C267.212 57.3375 276 85.3125 258.512 97.2875V110.863C258.512 113.75 255.925 115.675 253.575 116.725C252.825 122.425 239.287 122.425 238.55 116.725C236.2 115.675 233.612 113.663 233.612 110.863V97.2875C216.187 85.35 224.837 57.3375 246.062 57.3375Z" fill="#518282"/>
<path d="M258.512 98.8625V110.863C258.512 114.925 252.937 118.225 246.062 118.225C239.187 118.225 233.612 114.925 233.612 110.863V98.8625H258.512Z" fill="#518282"/>
<path d="M246.062 114.212C252.937 114.212 258.512 110.912 258.512 106.85V110.85C258.512 114.912 252.937 118.212 246.062 118.212C239.187 118.212 233.612 114.912 233.612 110.85V106.85C233.612 110.912 239.187 114.212 246.062 114.212Z" fill="#749B9B"/>
<path d="M246.062 106.212C252.937 106.212 258.512 102.912 258.512 98.85V102.85C258.512 106.912 252.937 110.212 246.062 110.212C239.187 110.212 233.612 106.912 233.612 102.85V98.85C233.612 102.925 239.187 106.212 246.062 106.212Z" fill="#749B9B"/>
<path d="M224 79.0625C224 66.875 233.875 57 246.062 57C258.25 57 268.125 66.875 268.125 79.0625C268.125 86.625 264.312 93.3 258.513 97.275V98.85C258.513 102.913 252.938 106.213 246.062 106.213C239.188 106.213 233.613 102.913 233.613 98.85V97.275C227.812 93.3125 224 86.6375 224 79.0625Z" fill="#FCCC63"/>
<path opacity="0.3" d="M246.062 106.225C252.938 106.225 258.512 102.929 258.512 98.8625C258.512 94.7963 252.938 91.5 246.062 91.5C239.186 91.5 233.612 94.7963 233.612 98.8625C233.612 102.929 239.186 106.225 246.062 106.225Z" fill="white"/>
<path d="M237.725 86.7625C239.062 86.325 240.462 85.8125 241.687 84.975C242.362 84.7625 242.775 85 242.9 85.7V87.1625L242.925 87.15C243.425 86.8625 243.737 86.3375 243.737 85.7625V82.9125C243.737 81.7625 244.362 80.675 245.362 80.1L245.462 80.0375C246.775 79.5875 247.562 80.0375 247.825 81.4V84.35L247.85 84.3375C248.362 84.0625 248.687 83.525 248.687 82.9375V80.075C248.687 77.875 252.637 75.525 252.637 78.6625V78.7375L254.5 77.6875L254.55 77.475C254.9 76.0375 257.125 76.575 256.775 78.0125L252.337 96.2C251.937 97.8375 249.787 96.9625 250.112 95.6625L253.962 79.875L252.212 80.85C251.525 81.075 251.125 80.8375 250.987 80.125V78.775C250.037 79.475 250.162 81.95 250.337 82.925C250.337 84.1125 249.687 85.2125 248.637 85.775L248.512 85.8375C247.212 86.2625 246.437 85.8 246.175 84.45V81.5C245.687 81.7875 245.387 82.3125 245.387 82.875V85.75C245.387 86.925 244.75 88.0125 243.725 88.5875C242.737 89.05 241.25 88.8625 241.25 87.275V87.075L239.362 88.0875L243.437 100.475C243.862 101.775 241.775 102.763 241.262 101.188L237 88.2125C236.8 87.6125 237.125 86.9625 237.725 86.7625C237.95 86.6875 237.125 86.9625 237.725 86.7625Z" fill="#CAA414"/>
<path opacity="0.3" d="M252.775 81.6125C258.105 81.6125 262.425 77.292 262.425 71.9625C262.425 66.633 258.105 62.3125 252.775 62.3125C247.445 62.3125 243.125 66.633 243.125 71.9625C243.125 77.292 247.445 81.6125 252.775 81.6125Z" fill="white"/>
</g>
<g filter="url(#filter2_d)">
<circle cx="397" cy="217" r="53" fill="#174488"/>
<circle cx="397" cy="217" r="48" stroke="#82B0F5" stroke-width="10"/>
</g>
<g clip-path="url(#clip1)">
<path d="M377.456 205.472L375.632 205.154C373.614 204.803 371.699 206.149 371.348 208.168L370.395 213.641L379.517 215.229L380.47 209.756C380.821 207.738 379.475 205.823 377.456 205.472Z" fill="#BE5000"/>
<path d="M377.139 207.296L375.314 206.979C374.311 206.804 373.347 207.482 373.172 208.485L372.219 213.959L377.693 214.912L378.646 209.438C378.82 208.435 378.142 207.471 377.139 207.296Z" fill="#DC6E1E"/>
<path d="M383.207 210.232L386.855 210.868C387.357 210.955 387.696 211.437 387.609 211.939L386.815 216.5L381.341 215.547L382.135 210.986C382.223 210.484 382.705 210.145 383.207 210.232Z" fill="#4B8C41"/>
<path d="M387.173 209.043L390.822 209.678C391.324 209.766 391.663 210.248 391.575 210.749L390.464 217.135L384.99 216.182L386.102 209.797C386.189 209.295 386.671 208.956 387.173 209.043Z" fill="#91B945"/>
<path d="M415.052 227.055C418.075 227.581 420.952 225.557 421.478 222.534C422.005 219.512 419.981 216.635 416.958 216.108C413.935 215.582 411.058 217.606 410.532 220.629C410.006 223.652 412.03 226.529 415.052 227.055Z" fill="#D7E6E6"/>
<path d="M382.71 215.785C382.813 215.192 383.734 214.624 383.656 214.058C383.569 213.479 382.529 213.181 382.266 212.665C382.005 212.138 382.414 211.14 382.018 210.719C381.619 210.308 380.602 210.684 380.075 210.404C379.569 210.139 379.318 209.085 378.725 208.982C378.132 208.879 377.539 209.786 376.974 209.864C376.395 209.951 375.564 209.254 375.039 209.504C374.512 209.764 374.56 210.842 374.147 211.252C373.737 211.65 372.648 211.566 372.368 212.093C372.104 212.599 372.779 213.445 372.675 214.038C372.572 214.631 371.651 215.199 371.729 215.765C371.816 216.344 372.856 216.642 373.119 217.158C373.38 217.685 372.971 218.683 373.368 219.105C373.766 219.515 374.783 219.14 375.31 219.419C375.816 219.684 376.067 220.738 376.66 220.841C377.253 220.944 377.846 220.037 378.412 219.959C378.991 219.872 379.821 220.569 380.346 220.319C380.873 220.059 380.826 218.981 381.238 218.572C381.648 218.173 382.738 218.257 383.017 217.73C383.282 217.224 382.606 216.378 382.71 215.785Z" fill="#D7E6E6"/>
<path d="M376.978 219.016C374.709 218.621 373.193 216.466 373.588 214.197C373.983 211.928 376.138 210.412 378.407 210.807C380.676 211.202 382.193 213.357 381.798 215.626C381.403 217.895 379.247 219.411 376.978 219.016ZM378.248 211.719C376.492 211.413 374.806 212.6 374.5 214.356C374.194 216.112 375.381 217.798 377.137 218.104C378.893 218.41 380.58 217.223 380.885 215.467C381.191 213.711 380.004 212.024 378.248 211.719Z" fill="#FF8773"/>
<path d="M377.349 216.884C376.255 216.694 375.531 215.651 375.72 214.568C375.909 213.485 376.953 212.75 378.036 212.939C379.119 213.127 379.854 214.172 379.665 215.255C379.477 216.338 378.444 217.075 377.349 216.884ZM377.877 213.851C377.296 213.75 376.733 214.145 376.632 214.727C376.531 215.308 376.927 215.871 377.508 215.972C378.09 216.073 378.652 215.678 378.753 215.096C378.854 214.515 378.459 213.952 377.877 213.851Z" fill="#FF8773"/>
<path d="M415.529 224.318C417.04 224.581 418.479 223.57 418.742 222.058C419.005 220.547 417.993 219.108 416.482 218.845C414.97 218.582 413.532 219.594 413.269 221.105C413.005 222.617 414.017 224.055 415.529 224.318Z" fill="#FCCC63"/>
<path d="M406.842 225.626C409.865 226.152 412.742 224.128 413.269 221.105C413.795 218.082 411.771 215.205 408.748 214.679C405.725 214.153 402.848 216.177 402.322 219.199C401.796 222.222 403.82 225.099 406.842 225.626Z" fill="#D7E6E6"/>
<path d="M407.319 222.889C408.83 223.152 410.269 222.14 410.532 220.629C410.795 219.117 409.783 217.679 408.272 217.416C406.76 217.153 405.322 218.165 405.059 219.676C404.796 221.187 405.808 222.626 407.319 222.889Z" fill="#FCCC63"/>
<path d="M389.714 194.448L427.114 200.959L427.432 199.135L390.032 192.624C389.53 192.536 389.048 192.875 388.961 193.377C388.873 193.879 389.212 194.361 389.714 194.448Z" fill="#D7322D"/>
<path d="M389.079 198.097L426.479 204.608L426.797 202.784L389.396 196.272C388.895 196.185 388.413 196.524 388.325 197.026C388.238 197.527 388.577 198.009 389.079 198.097Z" fill="#D7322D"/>
<path d="M388.961 193.377L427.273 200.047L427.432 199.135L390.032 192.624C389.53 192.536 389.048 192.875 388.961 193.377Z" fill="#F04B37"/>
<path d="M388.325 197.026L426.638 203.696L426.797 202.784L389.396 196.272C388.895 196.185 388.413 196.524 388.325 197.026Z" fill="#F04B37"/>
<path d="M390.225 218.503C389.473 218.372 388.964 217.649 389.095 216.897C389.367 215.334 390.23 214.627 390.86 214.114C391.339 213.728 391.557 213.554 391.65 213.018C391.743 212.482 391.597 212.245 391.277 211.72C390.858 211.024 390.284 210.066 390.556 208.504C390.828 206.942 391.691 206.235 392.321 205.722C392.8 205.335 393.018 205.162 393.111 204.626C393.205 204.09 393.058 203.853 392.738 203.327C392.319 202.632 391.745 201.674 392.017 200.112C392.289 198.55 393.153 197.843 393.782 197.33C394.261 196.943 394.479 196.769 394.572 196.234C394.703 195.481 395.426 194.972 396.179 195.103C396.931 195.234 397.44 195.957 397.309 196.71C397.037 198.272 396.174 198.979 395.544 199.492C395.065 199.879 394.847 200.053 394.754 200.588C394.661 201.124 394.807 201.361 395.127 201.887C395.546 202.583 396.12 203.54 395.848 205.102C395.576 206.664 394.713 207.372 394.083 207.885C393.604 208.271 393.386 208.445 393.293 208.981C393.2 209.517 393.346 209.754 393.666 210.279C394.085 210.975 394.659 211.932 394.387 213.495C394.115 215.057 393.251 215.764 392.622 216.277C392.143 216.664 391.925 216.837 391.832 217.373C391.701 218.126 390.978 218.634 390.225 218.503Z" fill="#F5871E"/>
<path d="M387.489 218.027C386.736 217.896 386.228 217.173 386.359 216.42C386.631 214.858 387.494 214.151 388.124 213.638C388.602 213.251 388.82 213.078 388.914 212.542C389.007 212.006 388.86 211.769 388.54 211.243C388.121 210.547 387.548 209.59 387.82 208.028C388.092 206.466 388.955 205.758 389.585 205.245C390.063 204.859 390.281 204.685 390.375 204.149C390.468 203.613 390.321 203.376 390.002 202.851C389.582 202.155 389.009 201.198 389.281 199.636C389.553 198.073 390.416 197.366 391.046 196.853C391.524 196.467 391.742 196.293 391.836 195.757C391.967 195.005 392.69 194.496 393.442 194.627C394.195 194.758 394.703 195.481 394.572 196.234C394.3 197.796 393.437 198.503 392.807 199.016C392.329 199.403 392.111 199.576 392.017 200.112C391.924 200.648 392.071 200.885 392.39 201.411C392.81 202.106 393.383 203.064 393.111 204.626C392.839 206.188 391.976 206.895 391.346 207.408C390.868 207.795 390.65 207.968 390.556 208.504C390.463 209.04 390.61 209.277 390.929 209.803C391.349 210.498 391.922 211.456 391.65 213.018C391.378 214.58 390.515 215.288 389.885 215.801C389.407 216.187 389.189 216.361 389.095 216.897C388.964 217.649 388.241 218.158 387.489 218.027Z" fill="#FCCC63"/>
<path d="M395.699 219.456C394.946 219.325 394.437 218.602 394.568 217.849C394.84 216.287 395.704 215.58 396.333 215.067C396.812 214.68 397.03 214.507 397.123 213.971C397.217 213.435 397.07 213.198 396.75 212.672C396.331 211.977 395.758 211.019 396.03 209.457C396.301 207.895 397.165 207.188 397.794 206.675C398.273 206.288 398.491 206.115 398.584 205.579C398.678 205.043 398.531 204.806 398.211 204.28C397.792 203.585 397.219 202.627 397.491 201.065C397.763 199.503 398.626 198.795 399.256 198.282C399.734 197.896 399.952 197.722 400.046 197.186C400.177 196.434 400.899 195.925 401.652 196.056C402.405 196.187 402.913 196.91 402.782 197.663C402.51 199.225 401.647 199.932 401.017 200.445C400.539 200.832 400.321 201.005 400.227 201.541C400.134 202.077 400.281 202.314 400.6 202.84C401.02 203.536 401.593 204.493 401.321 206.055C401.049 207.617 400.186 208.325 399.556 208.838C399.078 209.224 398.859 209.398 398.766 209.934C398.673 210.47 398.82 210.707 399.139 211.232C399.559 211.928 400.132 212.885 399.86 214.447C399.588 216.01 398.725 216.717 398.095 217.23C397.617 217.617 397.398 217.79 397.305 218.326C397.174 219.078 396.451 219.587 395.699 219.456Z" fill="#F5871E"/>
<path d="M392.962 218.98C392.209 218.849 391.701 218.126 391.832 217.373C392.104 215.811 392.967 215.104 393.597 214.591C394.075 214.204 394.294 214.03 394.387 213.495C394.48 212.959 394.333 212.722 394.014 212.196C393.594 211.5 393.021 210.543 393.293 208.981C393.565 207.419 394.428 206.711 395.058 206.198C395.536 205.812 395.755 205.638 395.848 205.102C395.941 204.566 395.794 204.329 395.475 203.804C395.055 203.108 394.482 202.151 394.754 200.588C395.026 199.026 395.889 198.319 396.519 197.806C396.997 197.419 397.216 197.246 397.309 196.71C397.44 195.957 398.163 195.449 398.915 195.58C399.668 195.711 400.177 196.434 400.046 197.186C399.774 198.749 398.91 199.456 398.281 199.969C397.802 200.356 397.584 200.529 397.491 201.065C397.397 201.601 397.544 201.838 397.864 202.363C398.283 203.059 398.856 204.017 398.585 205.579C398.313 207.141 397.449 207.848 396.82 208.361C396.341 208.748 396.123 208.921 396.03 209.457C395.936 209.993 396.083 210.23 396.403 210.756C396.822 211.451 397.395 212.409 397.123 213.971C396.851 215.533 395.988 216.24 395.358 216.753C394.88 217.14 394.662 217.314 394.568 217.849C394.437 218.602 393.715 219.111 392.962 218.98Z" fill="#FCCC63"/>
<path d="M401.172 220.409C400.419 220.278 399.911 219.555 400.042 218.802C400.314 217.24 401.177 216.533 401.807 216.02C402.285 215.633 402.503 215.46 402.597 214.924C402.69 214.388 402.543 214.151 402.224 213.625C401.804 212.93 401.231 211.972 401.503 210.41C401.775 208.848 402.638 208.141 403.268 207.628C403.746 207.241 403.964 207.067 404.058 206.532C404.151 205.996 404.004 205.759 403.685 205.233C403.265 204.537 402.692 203.58 402.964 202.018C403.236 200.456 404.099 199.748 404.729 199.235C405.207 198.849 405.425 198.675 405.519 198.139C405.65 197.387 406.373 196.878 407.125 197.009C407.878 197.14 408.386 197.863 408.255 198.616C407.983 200.178 407.12 200.885 406.49 201.398C406.012 201.785 405.794 201.958 405.7 202.494C405.607 203.03 405.754 203.267 406.074 203.793C406.493 204.488 407.066 205.446 406.794 207.008C406.522 208.57 405.659 209.277 405.029 209.791C404.551 210.177 404.333 210.351 404.239 210.887C404.146 211.422 404.293 211.659 404.612 212.185C405.032 212.881 405.605 213.838 405.333 215.4C405.061 216.962 404.198 217.67 403.568 218.183C403.09 218.569 402.872 218.743 402.778 219.279C402.647 220.031 401.924 220.54 401.172 220.409Z" fill="#F5871E"/>
<path d="M398.435 219.932C397.683 219.801 397.174 219.079 397.305 218.326C397.577 216.764 398.44 216.056 399.07 215.543C399.549 215.157 399.767 214.983 399.86 214.447C399.953 213.911 399.807 213.674 399.487 213.149C399.068 212.453 398.494 211.496 398.766 209.934C399.038 208.372 399.901 207.664 400.531 207.151C401.01 206.765 401.228 206.591 401.321 206.055C401.414 205.519 401.268 205.282 400.948 204.757C400.529 204.061 399.955 203.104 400.227 201.541C400.499 199.979 401.362 199.272 401.992 198.759C402.471 198.372 402.689 198.199 402.782 197.663C402.913 196.91 403.636 196.402 404.389 196.533C405.141 196.664 405.65 197.387 405.519 198.139C405.247 199.701 404.384 200.409 403.754 200.922C403.275 201.308 403.057 201.482 402.964 202.018C402.871 202.554 403.017 202.791 403.337 203.316C403.756 204.012 404.33 204.969 404.058 206.532C403.786 208.094 402.922 208.801 402.293 209.314C401.814 209.701 401.596 209.874 401.503 210.41C401.409 210.946 401.556 211.183 401.876 211.709C402.295 212.404 402.869 213.362 402.597 214.924C402.325 216.486 401.461 217.193 400.832 217.706C400.353 218.093 400.135 218.266 400.042 218.802C399.911 219.555 399.188 220.063 398.435 219.932Z" fill="#FCCC63"/>
<path d="M401.247 241.569L383.003 238.393C372.923 236.638 366.18 227.052 367.935 216.972L368.253 215.148C368.428 214.144 369.392 213.466 370.395 213.641L421.478 222.535C422.482 222.709 423.16 223.673 422.985 224.677L422.668 226.501C420.913 236.581 411.327 243.324 401.247 241.569Z" fill="#F04B37"/>
<path d="M383.321 236.568C374.267 234.992 368.184 226.343 369.76 217.29L369.919 216.378C370.006 215.876 370.488 215.537 370.99 215.624C371.491 215.712 371.83 216.194 371.743 216.695L371.584 217.607C370.183 225.658 375.588 233.342 383.638 234.744C384.14 234.831 384.479 235.313 384.392 235.815C384.304 236.316 383.823 236.656 383.321 236.568Z" fill="#FF7262"/>
<path d="M421.478 222.535L403.234 219.358C404.238 219.533 404.916 220.497 404.741 221.5L404.424 223.325C402.669 233.405 393.083 240.147 383.003 238.393L401.247 241.569C411.327 243.324 420.913 236.581 422.668 226.501L422.985 224.677C423.16 223.673 422.482 222.709 421.478 222.535Z" fill="#D7322D"/>
<path d="M398.788 244.9L384.192 242.359C383.189 242.184 382.511 241.22 382.686 240.217L383.003 238.393L401.247 241.569L400.93 243.393C400.755 244.397 399.791 245.075 398.788 244.9Z" fill="#D7322D"/>
</g>
<g filter="url(#filter3_d)">
<circle cx="451" cy="388" r="53" fill="#174488"/>
<circle cx="451" cy="388" r="48" stroke="#82B0F5" stroke-width="10"/>
</g>
<g clip-path="url(#clip2)">
<path d="M451 387.677C450.144 381.553 454.415 375.895 460.539 375.04C466.663 374.184 472.321 378.455 473.176 384.579C474.032 390.702 469.761 396.36 463.637 397.216C457.513 398.071 451.855 393.801 451 387.677Z" fill="#1ABCFE"/>
<path d="M431.922 412.951C431.066 406.827 435.337 401.169 441.461 400.314L452.549 398.765L454.098 409.853C454.954 415.977 450.683 421.635 444.559 422.49C438.435 423.346 432.777 419.075 431.922 412.951Z" fill="#0ACF83"/>
<path d="M446.353 354.412L449.451 376.589L460.539 375.04C466.663 374.184 470.933 368.526 470.078 362.402C469.222 356.279 463.565 352.008 457.441 352.863L446.353 354.412Z" fill="#FF7262"/>
<path d="M425.725 368.599C426.581 374.723 432.239 378.993 438.363 378.138L449.451 376.589L446.353 354.412L435.264 355.962C429.141 356.817 424.87 362.475 425.725 368.599Z" fill="#F24E1E"/>
<path d="M428.824 390.775C429.679 396.899 435.337 401.17 441.461 400.314L452.549 398.765L449.451 376.589L438.363 378.138C432.239 378.993 427.968 384.651 428.824 390.775Z" fill="#A259FF"/>
<path d="M467.753 381.382C465.272 378.367 462.524 378.1 459.402 378.936" stroke="#B4E9FF" stroke-width="4" stroke-linecap="round"/>
<path d="M465.168 359.407C462.687 356.391 459.938 356.124 456.817 356.96" stroke="#FFBFB8" stroke-width="4" stroke-linecap="round"/>
</g>
<defs>
<filter id="filter0_d" x="0" y="120" width="109" height="111" filterUnits="userSpaceOnUse" color-interpolation-filters="sRGB">
<feFlood flood-opacity="0" result="BackgroundImageFix"/>
<feColorMatrix in="SourceAlpha" type="matrix" values="0 0 0 0 0 0 0 0 0 0 0 0 0 0 0 0 0 0 127 0"/>
<feOffset dx="-3" dy="5"/>
<feColorMatrix type="matrix" values="0 0 0 0 0.0901961 0 0 0 0 0.266667 0 0 0 0 0.533333 0 0 0 0.5 0"/>
<feBlend mode="normal" in2="BackgroundImageFix" result="effect1_dropShadow"/>
<feBlend mode="normal" in="SourceGraphic" in2="effect1_dropShadow" result="shape"/>
</filter>
<filter id="filter1_d" x="190" y="36" width="109" height="111" filterUnits="userSpaceOnUse" color-interpolation-filters="sRGB">
<feFlood flood-opacity="0" result="BackgroundImageFix"/>
<feColorMatrix in="SourceAlpha" type="matrix" values="0 0 0 0 0 0 0 0 0 0 0 0 0 0 0 0 0 0 127 0"/>
<feOffset dx="-3" dy="5"/>
<feColorMatrix type="matrix" values="0 0 0 0 0.0901961 0 0 0 0 0.266667 0 0 0 0 0.533333 0 0 0 0.5 0"/>
<feBlend mode="normal" in2="BackgroundImageFix" result="effect1_dropShadow"/>
<feBlend mode="normal" in="SourceGraphic" in2="effect1_dropShadow" result="shape"/>
</filter>
<filter id="filter2_d" x="341" y="164" width="109" height="111" filterUnits="userSpaceOnUse" color-interpolation-filters="sRGB">
<feFlood flood-opacity="0" result="BackgroundImageFix"/>
<feColorMatrix in="SourceAlpha" type="matrix" values="0 0 0 0 0 0 0 0 0 0 0 0 0 0 0 0 0 0 127 0"/>
<feOffset dx="-3" dy="5"/>
<feColorMatrix type="matrix" values="0 0 0 0 0.0901961 0 0 0 0 0.266667 0 0 0 0 0.533333 0 0 0 0.5 0"/>
<feBlend mode="normal" in2="BackgroundImageFix" result="effect1_dropShadow"/>
<feBlend mode="normal" in="SourceGraphic" in2="effect1_dropShadow" result="shape"/>
</filter>
<filter id="filter3_d" x="395" y="335" width="109" height="111" filterUnits="userSpaceOnUse" color-interpolation-filters="sRGB">
<feFlood flood-opacity="0" result="BackgroundImageFix"/>
<feColorMatrix in="SourceAlpha" type="matrix" values="0 0 0 0 0 0 0 0 0 0 0 0 0 0 0 0 0 0 127 0"/>
<feOffset dx="-3" dy="5"/>
<feColorMatrix type="matrix" values="0 0 0 0 0.0901961 0 0 0 0 0.266667 0 0 0 0 0.533333 0 0 0 0.5 0"/>
<feBlend mode="normal" in2="BackgroundImageFix" result="effect1_dropShadow"/>
<feBlend mode="normal" in="SourceGraphic" in2="effect1_dropShadow" result="shape"/>
</filter>
<clipPath id="clip0">
<rect width="44.125" height="64" fill="white" transform="translate(224 57)"/>
</clipPath>
<clipPath id="clip1">
<rect width="55.5556" height="50" fill="white" transform="translate(372.7 189.606) rotate(9.87607)"/>
</clipPath>
<clipPath id="clip2">
<rect width="45.2439" height="67.8659" fill="white" transform="translate(423.9 357.2) rotate(-7.9532)"/>
</clipPath>
</defs>
</svg>
